<svg width="28" height="28" viewBox="0 0 28 28" fill="none" xmlns="http://www.w3.org/2000/svg">
<path d="M14 2.33325C20.4433 2.33325 25.6667 7.55659 25.6667 13.9999C25.6667 20.4432 20.4433 25.6666 14 25.6666C7.55668 25.6666 2.33334 20.4432 2.33334 13.9999C2.33334 7.55659 7.55668 2.33325 14 2.33325ZM14 8.16659C13.557 8.16659 13.1909 8.49576 13.1329 8.92285L13.125 9.04159V13.1249H9.04167C8.55842 13.1249 8.16667 13.5167 8.16667 13.9999C8.16667 14.4429 8.49584 14.809 8.92294 14.867L9.04167 14.8749H13.125V18.9583C13.125 19.4415 13.5168 19.8333 14 19.8333C14.443 19.8333 14.8091 19.504 14.8671 19.077L14.875 18.9583V14.8749H18.9583C19.4416 14.8749 19.8333 14.4832 19.8333 13.9999C19.8333 13.5569 19.5041 13.1908 19.0771 13.1329L18.9583 13.1249H14.875V9.04159C14.875 8.55834 14.4832 8.16659 14 8.16659Z" fill="#5B5FC7"/>
</svg>
