<svg width="19" height="19" viewBox="0 0 19 19" fill="none" xmlns="http://www.w3.org/2000/svg">
<path d="M9.16812 0C14.2315 0 18.3362 4.10469 18.3362 9.16809C18.3362 14.2315 14.2315 18.3361 9.16812 18.3361C4.1047 18.3361 0 14.2315 0 9.16809C0 4.10469 4.1047 0 9.16812 0ZM9.16812 1.375C4.86409 1.375 1.375 4.86408 1.375 9.16809C1.375 13.4721 4.86409 16.9611 9.16812 16.9611C13.4721 16.9611 16.9612 13.4721 16.9612 9.16809C16.9612 4.86408 13.4721 1.375 9.16812 1.375ZM5.92468 11.7194C6.70306 12.7073 7.88653 13.2946 9.16803 13.2946C10.448 13.2946 11.6299 12.709 12.4084 11.7233C12.6438 11.4253 13.0761 11.3745 13.3741 11.6099C13.6721 11.8452 13.7229 12.2775 13.4875 12.5755C12.451 13.8879 10.8732 14.6696 9.16803 14.6696C7.46065 14.6696 5.88103 13.8858 4.84465 12.5704C4.60966 12.2722 4.66094 11.8399 4.95919 11.605C5.25743 11.3699 5.6897 11.4213 5.92468 11.7194ZM6.4185 6.18951C7.05096 6.18951 7.56368 6.70222 7.56368 7.33469C7.56368 7.96716 7.05096 8.47985 6.4185 8.47985C5.78604 8.47985 5.27332 7.96716 5.27332 7.33469C5.27332 6.70222 5.78604 6.18951 6.4185 6.18951ZM11.9185 6.18951C12.551 6.18951 13.0637 6.70222 13.0637 7.33469C13.0637 7.96716 12.551 8.47985 11.9185 8.47985C11.286 8.47985 10.7733 7.96716 10.7733 7.33469C10.7733 6.70222 11.286 6.18951 11.9185 6.18951Z" fill="#676767"/>
</svg>
